
<svg version="1.0" xmlns="http://www.w3.org/2000/svg"
 width="718.000000pt" height="192.000000pt" viewBox="0 0 718.000000 192.000000"
 preserveAspectRatio="xMidYMid meet">
<metadata>
Created by potrace 1.16, written by Peter Selinger 2001-2019
</metadata>
<g transform="translate(0.000000,192.000000) scale(0.100000,-0.100000)"
fill="#fff" stroke="none">
<path d="M240 1617 c-25 -8 -42 -25 -60 -57 l-25 -45 0 -572 c0 -564 0 -572
21 -600 34 -46 69 -52 299 -52 223 -1 273 6 310 43 48 48 38 158 -18 200 -25
19 -45 21 -177 24 l-148 4 -4 476 c-4 516 -6 530 -60 566 -33 21 -97 28 -138
13z" fill="#0517F4"/>
<path d="M2910 1613 c-66 -34 -65 -20 -68 -623 -2 -300 0 -564 3 -588 10 -65
49 -104 111 -109 105 -9 130 32 140 230 l7 137 26 0 c24 0 31 -13 91 -146 67
-150 107 -208 153 -219 42 -11 95 3 130 35 29 26 32 34 32 88 0 56 -7 74 -102
266 -57 114 -103 213 -103 220 0 7 41 64 90 125 80 101 90 117 90 153 0 77
-68 132 -148 120 -34 -5 -49 -19 -171 -170 -41 -51 -78 -92 -81 -92 -4 0 -9
109 -12 243 -6 258 -13 296 -58 324 -36 23 -92 25 -130 6z" fill="#0517F4"
/>
<path d="M5840 1613 c-58 -30 -73 -75 -78 -234 l-4 -137 -64 -4 c-83 -5 -105
-25 -112 -101 -4 -49 -1 -57 24 -86 25 -26 38 -32 90 -37 l61 -7 6 -251 c6
-294 14 -336 81 -402 49 -50 124 -70 223 -61 109 11 173 63 173 142 0 81 -32
115 -106 115 -91 0 -104 35 -104 273 l0 184 74 6 c40 3 83 11 94 18 48 30 58
129 18 175 -21 25 -32 28 -102 33 l-79 6 -5 145 c-6 153 -15 188 -56 215 -38
25 -95 28 -134 8z"/>
<path d="M1200 1234 c-108 -29 -171 -81 -217 -179 l-28 -60 0 -230 0 -230 29
-63 c35 -76 95 -132 175 -164 47 -19 75 -22 176 -22 168 0 252 36 314 133 49
76 61 143 61 346 0 204 -12 270 -61 347 -57 88 -174 139 -319 137 -41 0 -100
-7 -130 -15z m202 -223 l33 -29 0 -227 0 -227 -28 -24 c-39 -33 -105 -33 -144
0 l-28 24 -3 222 -3 221 34 34 c46 46 92 48 139 6z" fill="#0517F4"/>
<path d="M3971 1240 c-141 -30 -235 -128 -262 -276 -16 -88 -7 -407 14 -462
37 -97 112 -170 212 -203 51 -17 246 -18 302 -1 104 31 189 125 212 234 14 64
14 402 0 466 -22 107 -108 203 -207 233 -50 14 -217 20 -271 9z m175 -218 c41
-32 44 -53 44 -272 l0 -212 -29 -29 c-53 -52 -147 -34 -170 33 -6 18 -11 110
-11 215 0 198 7 236 51 267 30 21 88 20 115 -2z"/>
<path d="M6610 1236 c-71 -16 -110 -37 -148 -80 -36 -42 -52 -91 -52 -165 0
-109 52 -171 231 -278 164 -97 211 -162 156 -217 -21 -21 -36 -26 -74 -26 -64
0 -89 19 -96 70 -10 73 -70 111 -145 91 -70 -19 -94 -72 -72 -158 33 -134 168
-204 364 -190 201 14 306 111 306 281 -1 114 -56 188 -199 267 -45 24 -103 56
-131 72 -59 32 -85 67 -76 101 10 40 34 56 81 56 53 0 80 -21 97 -75 17 -50
47 -67 116 -62 75 5 102 33 102 106 0 105 -61 179 -172 208 -64 16 -213 16
-288 -1z" />
<path d="M2101 1225 c-96 -27 -164 -84 -201 -168 -46 -103 -52 -447 -10 -559
52 -139 209 -220 398 -205 150 12 252 62 307 151 24 40 30 62 33 120 5 96 -9
110 -118 114 -117 6 -160 -24 -160 -113 0 -46 -27 -75 -77 -82 -60 -8 -88 2
-112 41 -20 31 -21 48 -21 238 0 192 1 207 20 231 25 32 76 43 124 27 47 -15
66 -44 66 -98 0 -33 6 -48 25 -66 58 -54 213 -45 244 12 6 12 11 47 11 80 0
46 -7 72 -31 121 -36 71 -80 108 -168 142 -75 28 -252 36 -330 14z" fill="#0517F4"/>
<path d="M4718 1225 c-14 -8 -36 -35 -48 -59 -20 -43 -21 -54 -18 -353 3 -297
4 -310 26 -358 28 -60 73 -109 127 -138 31 -17 58 -22 116 -22 68 0 79 3 113
28 20 16 49 46 63 68 l26 40 16 -47 c9 -26 28 -56 42 -67 37 -27 106 -33 152
-13 66 27 68 37 67 457 0 394 -2 412 -50 454 -35 31 -130 28 -165 -5 -15 -14
-32 -34 -38 -45 -7 -12 -14 -117 -18 -265 -7 -260 -16 -309 -61 -357 -26 -27
-88 -31 -112 -7 -24 23 -25 37 -29 324 -4 296 -9 323 -69 360 -39 23 -101 26
-140 5z" />
</g>
</svg>
